<?xml version="1.0" encoding="UTF-8" standalone="no"?>
<!DOCTYPE svg PUBLIC "-//W3C//DTD SVG 1.1//EN" "http://www.w3.org/Graphics/SVG/1.1/DTD/svg11.dtd">
<svg width="100%" height="100%" viewBox="0 0 144 200" version="1.1" xmlns="http://www.w3.org/2000/svg" xmlns:xlink="http://www.w3.org/1999/xlink" xml:space="preserve" xmlns:serif="http://www.serif.com/" style="fill-rule:evenodd;clip-rule:evenodd;stroke-linejoin:round;stroke-miterlimit:2;">
    <g transform="matrix(1,0,0,1,-3269,-2739)">
        <g transform="matrix(1.33333,0,0,1.40541,2159.67,-2173)">
            <path d="M922,3512.15L922,3552L940,3552L940,3625.55C940,3632.08 934.408,3637.39 927.52,3637.39L844.48,3637.39C837.592,3637.39 832,3632.08 832,3625.55L832,3552L850,3552L850,3512.15C850,3509.62 850.894,3507.1 852.63,3505.04L857.43,3499.35C859.707,3496.65 863.155,3495.08 866.8,3495.08L905.2,3495.08C908.845,3495.08 912.293,3496.65 914.57,3499.35L919.37,3505.04C921.106,3507.1 922,3509.62 922,3512.15ZM910,3512.15L904,3506.46L868,3506.46L862,3512.15L910,3512.15ZM910,3523.54L904,3523.54L904,3569.08L910,3569.08L910,3523.54ZM868,3523.54L862,3523.54L862,3569.08L868,3569.08L868,3523.54ZM880,3523.54L880,3552L892,3552L892,3523.54L880,3523.54ZM892,3563.39L880,3563.39L880,3575.91C880,3578.42 877.849,3580.46 875.2,3580.46L854.8,3580.46C852.151,3580.46 850,3578.42 850,3575.91L850,3563.39L844,3563.39L844,3625.55C844,3625.8 844.215,3626 844.48,3626L927.52,3626C927.785,3626 928,3625.8 928,3625.55L928,3563.39L922,3563.39L922,3575.91C922,3578.42 919.849,3580.46 917.2,3580.46L896.8,3580.46C894.151,3580.46 892,3578.42 892,3575.91L892,3563.39Z"/>
        </g>
    </g>
</svg>
